<?xml version="1.0" encoding="UTF-8"?>
<svg version="1.1" xmlns="http://www.w3.org/2000/svg" width="1254" height="1254">
<path d="M0 0 C413.82 0 827.64 0 1254 0 C1254 413.82 1254 827.64 1254 1254 C840.18 1254 426.36 1254 0 1254 C0 840.18 0 426.36 0 0 Z " fill="#FDFDFD" transform="translate(0,0)"/>
<path d="M0 0 C0.96389648 0.00757324 1.92779297 0.01514648 2.92089844 0.02294922 C15.0507698 0.30093389 25.37031212 3.2763437 35.3125 10.4375 C36.00859375 10.92734375 36.7046875 11.4171875 37.421875 11.921875 C46.35875808 18.91896951 51.97105482 29.45149144 54.3125 40.4375 C54.71824711 44.07524416 54.79076214 47.65449904 54.75 51.3125 C54.74170166 52.27776611 54.73340332 53.24303223 54.72485352 54.23754883 C54.39273714 68.27271586 49.07685301 79.39422757 39.625 89.75 C29.5436812 99.19399405 14.70070869 103.53074278 1.125 103.875 C-13.62773296 103.35998342 -25.72955155 98.09315074 -36.3984375 87.8984375 C-46.90011641 76.60823662 -50.36384647 62.69823981 -50.15820312 47.59887695 C-49.5073539 32.60684198 -42.68525094 21.67324199 -32.07421875 11.4765625 C-22.53470742 3.32660356 -12.42867868 -0.13732142 0 0 Z " fill="#040303" transform="translate(627.6875,579.5625)"/>
<path d="M0 0 C8.09626413 6.09356833 15.49361519 13.55685943 19.15234375 23.13671875 C19.59900391 24.24660156 19.59900391 24.24660156 20.0546875 25.37890625 C23.85022797 36.60810893 24.30467614 51.77286187 19.41015625 62.69140625 C18.99507813 63.49835938 18.58 64.3053125 18.15234375 65.13671875 C17.71664062 66.06742188 17.2809375 66.998125 16.83203125 67.95703125 C10.56652243 80.52228664 0.27737966 88.4315172 -12.84765625 93.13671875 C-18.94157495 94.27139372 -24.97284302 94.35459772 -31.16015625 94.38671875 C-32.14177734 94.40734375 -33.12339844 94.42796875 -34.13476562 94.44921875 C-48.10300458 94.52317369 -58.6891509 89.3333806 -68.72265625 79.69921875 C-79.93000655 67.91148781 -82.26118801 55.95542217 -82.0625 40.171875 C-81.65740025 26.62745301 -76.65633784 15.24964052 -67.359375 5.4609375 C-63.21216364 1.62331579 -58.85459658 -1.26325852 -53.84765625 -3.86328125 C-53.01492188 -4.29769531 -52.1821875 -4.73210938 -51.32421875 -5.1796875 C-35.02478879 -12.03883178 -14.53297977 -9.50923367 0 0 Z " fill="#040303" transform="translate(453.84765625,587.86328125)"/>
<path d="M0 0 C1.0725 0.4125 2.145 0.825 3.25 1.25 C11.03812237 4.6617692 20.60301791 9.22197198 26 16 C26.8125 18.875 26.8125 18.875 26 22 C24.28414666 24.93374924 22.22908884 27.44194871 20 30 C19.15308594 31.02287109 19.15308594 31.02287109 18.2890625 32.06640625 C15.55559175 35.12764611 13.74229737 36.78587576 9.75 37.9375 C4.83715194 36.70928799 1.80968671 34.12212584 -2.15234375 31.04296875 C-11.75097759 24.15670606 -22.50836173 23.28337222 -34 24 C-37.20431634 24.64656828 -40.02341612 25.66546922 -43 27 C-43.65097656 27.25523437 -44.30195313 27.51046875 -44.97265625 27.7734375 C-54.8722715 32.06392681 -62.567971 40.27293965 -67 50 C-71.7516406 62.44821434 -70.7868851 74.41488057 -65.93359375 86.69921875 C-60.42330424 98.57452914 -52.36262768 104.27586219 -41 110 C-31.53848942 113.15383686 -16.93891688 112.34084093 -8 108 C-3.8254126 105.76622955 0.33879447 103.51401011 3.8515625 100.3125 C7.14068997 98.30314213 9.21741803 98.40935084 13 99 C15.54366169 100.70951735 17.43875544 102.81779173 19.4375 105.125 C19.97826172 105.69476562 20.51902344 106.26453125 21.07617188 106.8515625 C23.66651447 109.73335958 24.90668629 111.33643585 25.45703125 115.25 C24.59250105 120.45195951 21.41039741 122.91819745 17.41796875 125.98046875 C-0.17682301 138.27145697 -20.88398679 143.09131895 -42.12109375 139.37890625 C-57.64725746 135.6822006 -70.02158971 128.3939968 -81 117 C-81.59039062 116.44054687 -82.18078125 115.88109375 -82.7890625 115.3046875 C-95.81774198 101.99731969 -99.6899558 81.40199729 -99.53686523 63.57788086 C-98.88529742 44.24056485 -90.88163624 27.87581861 -77.08447266 14.44067383 C-56.85109351 -4.25454661 -25.63630678 -11.09967568 0 0 Z " fill="#040303" transform="translate(281,544)"/>
<path d="M0 0 C10.31697123 7.39811282 17.89156271 17.4981377 20.80859375 30.046875 C21.37529989 34.07901429 21.64357389 38.05624783 21.75 42.125 C21.7962854 43.22654419 21.7962854 43.22654419 21.84350586 44.3503418 C21.84392304 47.96356844 21.67033884 49.75223762 19.12129211 52.39178467 C15.67691859 54.54590696 13.75332621 54.67296273 9.71557617 54.64160156 C7.76411934 54.64114838 7.76411934 54.64114838 5.77323914 54.64068604 C4.36314271 54.62026241 2.95305261 54.59939847 1.54296875 54.578125 C0.09280682 54.5706592 -1.35736524 54.56496787 -2.80754089 54.56097412 C-6.61359802 54.54574413 -10.41903889 54.50648616 -14.22485352 54.4621582 C-18.11270818 54.42114793 -22.00066299 54.4029509 -25.88867188 54.3828125 C-33.5093947 54.33998838 -41.12961081 54.27177023 -48.75 54.1875 C-46.56259517 62.25701969 -46.56259517 62.25701969 -40.37109375 67.5703125 C-32.03596748 71.81673782 -24.76304275 74.05934865 -15.5 71.17578125 C-9.79928185 68.85766052 -9.79928185 68.85766052 -4.6328125 65.5703125 C-2.19240385 63.77797917 -0.00166244 63.34139532 3.01171875 63.44921875 C8.1683288 65.15009013 11.41572354 69.76880618 14.25 74.1875 C15.55801568 77.63535701 15.31371915 78.43319711 14.25 82.1875 C11.90238112 84.7680887 9.25671902 86.45005337 6.25 88.1875 C5.64929688 88.55617188 5.04859375 88.92484375 4.4296875 89.3046875 C-8.84966095 96.72042754 -24.40928805 98.24582111 -39.125 95.0625 C-53.20763323 90.90696888 -63.79553518 82.22801427 -71.375 69.765625 C-77.89423565 57.54205815 -78.90356506 42.43684182 -75.0625 29.1875 C-70.05857031 15.20082152 -61.14908349 4.03892459 -48.1328125 -3.28515625 C-32.84346334 -10.41356709 -14.11635041 -8.76106273 0 0 Z " fill="#040404" transform="translate(960.75,586.8125)"/>
<path d="M0 0 C2.2109375 2.4765625 2.2109375 2.4765625 2.75390625 5.93359375 C2.16192209 9.79639689 1.22726546 11.68878014 -1.1015625 14.7890625 C-2.02388672 16.05169922 -2.02388672 16.05169922 -2.96484375 17.33984375 C-5.3156868 20.09340081 -6.96999735 21.36819037 -10.59375 21.84765625 C-14.62987874 21.37891269 -16.64506 19.91765895 -19.9140625 17.5390625 C-25.79559827 13.29627524 -29.08200152 12.32574224 -36.2890625 12.2265625 C-37.413125 12.20078125 -38.5371875 12.175 -39.6953125 12.1484375 C-43.07161926 12.50653064 -44.41688344 13.09300608 -46.7890625 15.4765625 C-47.53927494 17.93288582 -47.53927494 17.93288582 -46.7890625 20.4765625 C-42.24702195 25.36722458 -35.91623319 26.52926194 -29.7265625 28.3515625 C-2.80154763 36.62861863 -2.80154763 36.62861863 3.5234375 46.9765625 C7.04884191 54.28851239 7.376332 62.45529325 4.9609375 70.2265625 C1.29101888 79.89407961 -4.9070009 85.31145293 -13.9765625 89.8515625 C-28.55855198 95.71219242 -45.52707569 93.40823694 -59.7890625 87.4765625 C-66.48586103 84.2599637 -73.05378506 80.2727491 -77.7890625 74.4765625 C-78.421875 71.5625 -78.421875 71.5625 -77.7890625 68.4765625 C-76.14198714 66.06749498 -74.647243 64.1823607 -72.6640625 62.1015625 C-72.1896875 61.55628906 -71.7153125 61.01101563 -71.2265625 60.44921875 C-68.87877826 57.91741899 -67.22987343 56.56890629 -63.82421875 55.85546875 C-59.98014469 56.64209394 -57.39434072 58.43865298 -54.3515625 60.7890625 C-47.79873231 65.74518376 -42.16931693 68.91349117 -33.6640625 68.7265625 C-31.89675781 68.70335937 -31.89675781 68.70335937 -30.09375 68.6796875 C-27.21924008 68.50300368 -24.58761315 68.13131775 -21.7890625 67.4765625 C-21.6240625 66.1978125 -21.4590625 64.9190625 -21.2890625 63.6015625 C-21.14984375 62.52261719 -21.14984375 62.52261719 -21.0078125 61.421875 C-20.751814 59.47157906 -20.751814 59.47157906 -20.7890625 57.4765625 C-25.68379105 55.79065704 -30.57266489 54.22987614 -35.56640625 52.86328125 C-36.57509766 52.58419922 -37.58378906 52.30511719 -38.62304688 52.01757812 C-40.68545323 51.45038393 -42.75058813 50.89301592 -44.81835938 50.34570312 C-56.22672427 47.14961366 -65.59780904 42.00505032 -71.8828125 31.6796875 C-74.98742825 24.95302005 -75.16074403 15.9855259 -73.02734375 8.97265625 C-68.64537852 -0.15499465 -61.37440377 -5.74296007 -52.15234375 -9.63671875 C-34.04378883 -15.34808659 -15.24883435 -10.35414678 0 0 Z " fill="#050505" transform="translate(765.7890625,590.5234375)"/>
<path d="M0 0 C4.36517796 3.1809341 4.36517796 3.1809341 5.1015625 7.3046875 C5.0190685 13.7274345 -0.21245639 18.49370639 -4.5234375 22.8046875 C-9.59808815 23.3210037 -12.27769048 22.13856255 -16.5234375 19.4296875 C-22.53422663 15.625985 -27.46956472 13.51972793 -34.6484375 13.4921875 C-35.66164063 13.47542969 -36.67484375 13.45867188 -37.71875 13.44140625 C-40.89468552 13.85277394 -42.25225932 14.58137958 -44.5234375 16.8046875 C-45.27364994 19.26101082 -45.27364994 19.26101082 -44.5234375 21.8046875 C-40.41213563 26.62483452 -34.40720687 27.36923706 -28.5234375 28.8046875 C-16.71303566 31.98859767 -1.54119416 36.14836578 5.4765625 46.9921875 C9.48966562 54.05692112 9.52063281 62.32774238 8.015625 70.22265625 C5.48397636 77.6835737 0.59046409 83.82682787 -6.24609375 87.7109375 C-19.21440944 93.93928809 -33.3949728 96.25079032 -47.3984375 92.0546875 C-49.45060815 91.33392513 -51.49363109 90.58621724 -53.5234375 89.8046875 C-54.32265625 89.5159375 -55.121875 89.2271875 -55.9453125 88.9296875 C-62.19681034 86.44682311 -71.44459574 81.96237102 -74.5234375 75.8046875 C-75.13529796 72.86775731 -75.3183485 71.62533943 -74.5234375 68.8046875 C-71.13790273 63.71512525 -67.6263478 59.58882354 -61.8359375 57.4296875 C-58.58729554 57.79745829 -56.89732865 58.43898756 -54.328125 60.41796875 C-51.93895499 62.25380285 -49.43219263 63.8623848 -46.8984375 65.4921875 C-45.51785156 66.39517578 -45.51785156 66.39517578 -44.109375 67.31640625 C-38.08490351 70.7836625 -31.30785622 70.30910525 -24.5234375 69.8046875 C-22.10621022 69.06092526 -20.62155604 68.24339736 -18.5234375 66.8046875 C-18.09246981 62.71295288 -18.09246981 62.71295288 -19.81591797 59.19995117 C-24.60552451 55.28622492 -31.66270653 54.1886819 -37.54272461 52.71337891 C-50.12810856 49.53502341 -61.0140402 46.13136176 -68.5234375 34.8046875 C-71.93771306 28.2809824 -72.5400089 21.0336397 -71.5234375 13.8046875 C-68.58514022 5.40955242 -63.52044587 -1.99210674 -55.5234375 -6.1953125 C-36.37218159 -13.77704363 -16.88486945 -11.10295386 0 0 Z " fill="#040404" transform="translate(1059.5234375,589.1953125)"/>
<path d="M0 0 C0.59167969 0.43441406 1.18335938 0.86882813 1.79296875 1.31640625 C4.35759483 3.49310569 5.01878195 5.08451879 5.75 8.375 C4.6820876 13.53657659 1.84549078 15.62265593 -2 19 C-2.66 19.804375 -3.32 20.60875 -4 21.4375 C-6 23 -6 23 -9.3125 23.625 C-13.69439947 22.88230517 -15.00425545 21.47314289 -18.13671875 18.53515625 C-23.70567023 13.94690063 -31.08499164 13.33276729 -38.06640625 13.51953125 C-44.25709524 14.53345235 -48.74881269 18.39502079 -52.875 22.9375 C-58.92808955 31.66107024 -59.05012606 40.00711508 -57.484375 50.43359375 C-57.32453125 51.28050781 -57.1646875 52.12742187 -57 53 C-56.34 53 -55.68 53 -55 53 C-54.484375 54.051875 -53.96875 55.10375 -53.4375 56.1875 C-50.36349243 61.53454134 -46.24510416 64.14277841 -40.5625 66.3125 C-32.27953472 67.91096698 -26.44462164 66.9238372 -19 63 C-16.89858719 61.43884403 -14.91670673 59.83982274 -12.984375 58.07421875 C-11 57 -11 57 -8.1015625 57.04296875 C-4.3010725 58.21566403 -2.43739489 59.82949637 0.375 62.625 C1.24898437 63.46289062 2.12296875 64.30078125 3.0234375 65.1640625 C5.54732459 68.7852918 5.67179446 70.66741256 5 75 C2.54106485 79.00951072 -0.47164268 81.23977946 -4.4375 83.6875 C-5.36433594 84.26886719 -6.29117188 84.85023438 -7.24609375 85.44921875 C-11.43066776 87.80563844 -14.14598541 89 -19 89 C-19 89.66 -19 90.32 -19 91 C-30.08492374 94.69497458 -45.6265627 92.81066381 -56 88 C-68.57296101 81.42209325 -78.4563364 71.63643333 -83.375 58.1875 C-87.18623221 44.70526606 -86.6418741 28.14028863 -80.0625 15.625 C-73.36384588 3.74253264 -63.10378128 -5.46787489 -50.125 -9.875 C-32.24889799 -14.11549579 -14.72732948 -10.91555008 0 0 Z " fill="#050404" transform="translate(568,591)"/>
<path d="M0 0 C0.80695312 -0.01095703 1.61390625 -0.02191406 2.4453125 -0.03320312 C6.05717811 0.01149818 8.38202445 0.19611511 11.5234375 2.05859375 C13.67705996 5.71063606 13.59700549 9.01631871 13.625 13.1875 C13.35424992 18.88553927 13.35424992 18.88553927 16 23.5625 C19.79309238 23.75549492 23.55102754 23.83132425 27.34765625 23.77734375 C31.74377377 23.870573 33.37619335 23.91466381 36.53515625 27.1953125 C38.09999332 30.7923513 38.56707647 33.2791954 38.5625 37.1875 C38.58441406 38.29351563 38.60632813 39.39953125 38.62890625 40.5390625 C38 43.5625 38 43.5625 35.58984375 45.8984375 C30.72480406 49.02439061 26.30605175 48.90528151 20.67773438 49.16796875 C17.03510546 49.02889287 17.03510546 49.02889287 14 50.5625 C13.87383605 53.5831707 13.81127947 56.57966218 13.796875 59.6015625 C13.78832489 60.97288834 13.78832489 60.97288834 13.77960205 62.37191772 C13.77013273 64.31385129 13.76361044 66.25580106 13.75976562 68.19775391 C13.75010857 71.15426277 13.71912394 74.11006219 13.6875 77.06640625 C13.68096526 78.95312087 13.67571664 80.83984047 13.671875 82.7265625 C13.6595282 83.60599518 13.6471814 84.48542786 13.63446045 85.39151001 C13.65413184 90.87857352 14.40646629 94.69942478 17 99.5625 C21.15410451 103.05572424 27.39735793 101.49176388 32.46875 101.2421875 C36 101.5625 36 101.5625 38.40625 103.2578125 C40.19119855 105.83898809 40.66865866 107.4590917 41 110.5625 C41.10183594 111.47128906 41.20367188 112.38007812 41.30859375 113.31640625 C41.43944122 116.16729509 41.46900609 118.74412082 41 121.5625 C34.05719978 128.04244687 25.12206813 127.04098851 16.2109375 126.91015625 C10.19269569 126.65485632 5.8172126 125.21068193 1 121.5625 C0.42507813 121.17835938 -0.14984375 120.79421875 -0.7421875 120.3984375 C-7.58377288 115.39488998 -11.0160481 107.56555711 -13 99.5625 C-13.43735005 95.54943755 -13.48760532 91.56181087 -13.51171875 87.52734375 C-13.52966995 86.40807999 -13.54762115 85.28881622 -13.56611633 84.13563538 C-13.61993176 80.59046094 -13.65402311 77.04541891 -13.6875 73.5 C-13.7206984 71.08396606 -13.75519037 68.66794954 -13.79101562 66.25195312 C-13.87564158 60.35558757 -13.9441123 54.45920426 -14 48.5625 C-15.11375 48.294375 -16.2275 48.02625 -17.375 47.75 C-21 46.5625 -21 46.5625 -23 43.5625 C-24.48322204 31.95343521 -24.48322204 31.95343521 -21.76171875 27.56640625 C-19.37472134 25.57033149 -16.9337576 24.5404192 -14 23.5625 C-13.97421875 22.32113281 -13.9484375 21.07976563 -13.921875 19.80078125 C-13.86557918 18.15881972 -13.80823217 16.516894 -13.75 14.875 C-13.73582031 14.05837891 -13.72164062 13.24175781 -13.70703125 12.40039062 C-13.55296025 8.59483697 -13.20086811 5.97480823 -11.515625 2.515625 C-7.78959976 -0.37725174 -4.59076651 -0.13566962 0 0 Z " fill="#030303" transform="translate(842,555.4375)"/>
<path d="M0 0 C3.62716324 3.71301326 2.88288988 9.15469836 2.8515625 14 C2.14275586 17.97668142 1.2555391 19.6850425 -1.75 22.375 C-4.6328125 22.94140625 -4.6328125 22.94140625 -7.875 22.9375 C-14.58758129 23.20207246 -21.10205455 24.31487515 -26.3984375 28.7578125 C-29.52444976 32.49818555 -29.99749034 35.53448039 -29.98950195 40.36523438 C-29.9950988 42.17731384 -29.9950988 42.17731384 -30.00080872 44.02600098 C-29.99667465 45.32710815 -29.99254059 46.62821533 -29.98828125 47.96875 C-29.99430207 49.32109347 -30.00190926 50.67343073 -30.0110321 52.02575684 C-30.04810088 57.76085031 -30.06668721 63.49574701 -30.05541992 69.23095703 C-30.04956584 72.74367636 -30.06783835 76.25558808 -30.10130882 79.7681427 C-30.11311564 81.75340309 -30.09792519 83.73876461 -30.08235168 85.72399902 C-30.10213326 87.53607849 -30.10213326 87.53607849 -30.12231445 89.38476562 C-30.12294388 90.44747681 -30.1235733 91.51018799 -30.1242218 92.60510254 C-30.96539938 96.32842756 -32.5992275 97.35671678 -35.75 99.375 C-38.59376365 100.10973142 -41.38346985 99.98024121 -44.3125 99.9375 C-45.44461914 99.97327148 -45.44461914 99.97327148 -46.59960938 100.00976562 C-50.21552832 100.00020813 -52.25196471 99.82952621 -54.96350098 97.35487366 C-57.24062988 93.5566312 -57.31276674 90.36853687 -57.26757812 86.06811523 C-57.2745874 85.24475677 -57.28159668 84.42139832 -57.28881836 83.5730896 C-57.30638123 80.85957827 -57.29478308 78.14711512 -57.28125 75.43359375 C-57.28394515 73.54459941 -57.28782777 71.65560642 -57.29284668 69.76661682 C-57.29873918 65.81148037 -57.29018579 61.85670568 -57.27148438 57.90161133 C-57.24867933 52.83156052 -57.26182926 47.76235595 -57.28577423 42.69233608 C-57.30022558 38.79325478 -57.29562954 34.89437428 -57.28526306 30.99528694 C-57.28259475 29.12577273 -57.28586921 27.25624029 -57.29518127 25.38674736 C-57.30533776 22.77483659 -57.28985996 20.16429869 -57.26757812 17.55249023 C-57.27567505 16.77991379 -57.28377197 16.00733734 -57.29211426 15.21134949 C-57.23698152 11.72390854 -57.03189367 9.74914609 -54.90515137 6.92640686 C-51.66010727 4.59043002 -49.02951534 4.25272244 -45.14453125 4.19921875 C-44.24283203 4.17537109 -43.34113281 4.15152344 -42.41210938 4.12695312 C-40.53212219 4.08443114 -38.6518488 4.05294103 -36.77148438 4.03320312 C-31.19870726 3.86313257 -27.31978354 3.05097699 -22.45996094 0.30639648 C-16.60363714 -2.8834772 -5.77421186 -3.52791942 0 0 Z " fill="#030303" transform="translate(367.75,581.625)"/>
<path d="M0 0 C1.21171875 -0.04898438 2.4234375 -0.09796875 3.671875 -0.1484375 C7.97094136 0.48046522 10.61637982 1.96559353 13.25 5.375 C14.10925572 8.29643926 14.06142992 11.09601201 14.01049805 14.125 C14.01940567 14.99552002 14.02831329 15.86604004 14.03749084 16.76293945 C14.05876439 19.63439363 14.03647264 22.5036012 14.01171875 25.375 C14.01322131 27.37370025 14.01665168 29.3723999 14.02192688 31.37109375 C14.02625793 35.55759019 14.00942319 39.74331624 13.97729492 43.9296875 C13.93751387 49.29351638 13.94681368 54.6559007 13.97152996 60.01977539 C13.98571854 64.14627911 13.97562192 68.2724459 13.95801735 72.39892578 C13.95217089 74.37645666 13.95346496 76.35402205 13.96204185 78.33154297 C13.97004123 81.0968069 13.9457734 83.85996049 13.9128418 86.625 C13.92139191 87.44073486 13.92994202 88.25646973 13.93875122 89.09692383 C13.85253105 93.29537428 13.58568258 94.93622962 10.9490509 98.38256836 C7.40217416 101.0008626 4.43034891 101.0813913 0.1875 100.9375 C-0.51955078 100.94845703 -1.22660156 100.95941406 -1.95507812 100.97070312 C-5.45833788 100.92136144 -7.39841167 100.6509658 -10.18359375 98.46484375 C-13.18767555 94.45690419 -12.91087503 90.99413206 -12.92700195 86.14916992 C-12.93357315 85.29859512 -12.94014435 84.44802032 -12.94691467 83.57167053 C-12.96666696 80.74960243 -12.97831439 77.92758758 -12.98828125 75.10546875 C-12.99235678 74.14267817 -12.9964323 73.17988758 -13.00063133 72.18792152 C-13.02150004 67.0923242 -13.03579844 61.99675388 -13.04516602 56.90112305 C-13.05623376 51.63501096 -13.09063562 46.36932104 -13.13033772 41.10335827 C-13.15646923 37.05673938 -13.16485476 33.01022162 -13.16844749 28.96352577 C-13.17332222 27.02224183 -13.18496132 25.08096266 -13.20348549 23.13976097 C-13.22780391 20.42250387 -13.22692539 17.70634602 -13.2199707 14.98901367 C-13.23278076 14.18726715 -13.24559082 13.38552063 -13.25878906 12.55947876 C-13.22358051 8.78486106 -12.90069564 6.61048511 -10.84562683 3.39912415 C-7.33155073 0.00494815 -4.81408069 0.13203175 0 0 Z " fill="#050505" transform="translate(796.75,580.625)"/>
<path d="M0 0 C5.22240238 4.0308382 9.22627813 9.37557587 11.19140625 15.69140625 C12.18335838 25.41253712 11.84117763 33.38869874 6.19140625 41.69140625 C5.59328125 42.64015625 4.99515625 43.58890625 4.37890625 44.56640625 C-2.05788901 50.81929307 -10.03903528 52.12622784 -18.703125 52.03125 C-25.21536304 51.31858999 -29.85799442 48.02478786 -34.18359375 43.25390625 C-40.29401463 35.43392164 -41.58017658 27.40427252 -40.80859375 17.69140625 C-39.50887848 10.12163602 -34.2731627 4.7676302 -28.80859375 -0.30859375 C-20.55417704 -5.81153822 -8.38835926 -4.85059984 0 0 Z " fill="#F9F9F9" transform="translate(644.80859375,607.30859375)"/>
<path d="M0 0 C6.17354673 3.81465879 12.03605345 10.17532338 14.15234375 17.2109375 C15.76835833 26.47608775 15.39884209 34.14982408 10.33203125 42.21875 C5.92792473 48.05200367 0.8118898 52.0583749 -6.4375 53.5625 C-13.53421958 54.43504749 -19.31335137 54.11310537 -25.40234375 50.16796875 C-32.22112816 44.78885091 -36.00619798 39.18865058 -37.4375 30.5625 C-38.47471957 21.49979402 -36.40864966 14.59059942 -31.8125 6.8125 C-23.02571166 -1.51182579 -11.70819989 -4.96501573 0 0 Z " fill="#F9F9F9" transform="translate(435.4375,605.4375)"/>
<path d="M0 0 C0.53882813 0.15597656 1.07765625 0.31195312 1.6328125 0.47265625 C1.6328125 1.13265625 1.6328125 1.79265625 1.6328125 2.47265625 C2.2309375 2.69953125 2.8290625 2.92640625 3.4453125 3.16015625 C6.43324985 4.95291866 7.28278724 6.23259562 8.6328125 9.47265625 C9.3677612 15.421768 9.14721491 20.43534613 5.6328125 25.47265625 C1.91151987 29.21428381 -1.25073993 31.30985259 -6.6171875 31.72265625 C-11.41635771 31.40271157 -15.2969922 30.42546934 -18.8828125 27.04296875 C-22.66443352 22.67454447 -23.68332391 19.27781772 -23.578125 13.5234375 C-23.05630093 8.45014791 -19.98271362 4.07828347 -16.37890625 0.6015625 C-11.61145549 -2.07376424 -5.17103147 -1.15196246 0 0 Z " fill="#080808" transform="translate(804.3671875,535.52734375)"/>
<path d="M0 0 C4.51092842 2.05042201 7.09846544 4.72386199 9.30078125 9.08203125 C10.88867578 13.43765256 10.8921593 17.03231269 9.01171875 21.1796875 C6.1351094 26.04231507 3.46198374 29.17933875 -2 31 C-6.63522786 31.53856933 -10.07906346 31.45178019 -14.3125 29.375 C-18.18964107 25.94868929 -20.60429303 23.45270095 -21.453125 18.19140625 C-21.74199722 12.93261886 -21.6932449 9.04359852 -18.25 4.875 C-12.93182107 -0.52375739 -7.28850026 -0.83569161 0 0 Z " fill="#050505" transform="translate(1099,653)"/>
<path d="M0 0 C3.75924784 2.63394667 6.43047991 5.13241072 8.375 9.375 C8.375 11.355 8.375 13.335 8.375 15.375 C-5.815 15.375 -20.005 15.375 -34.625 15.375 C-33.49426384 7.45984686 -31.97604764 4.80738097 -25.94140625 0.046875 C-18.18362455 -4.69121103 -7.78680007 -4.3771953 0 0 Z " fill="#F4F4F4" transform="translate(946.625,605.625)"/>
<path d="M0 0 C2.46452332 1.51837158 2.46452332 1.51837158 5 4 C5.47969463 6.77647083 5.63637241 8.93607503 5.56762695 11.70605469 C5.56872215 12.86272896 5.56872215 12.86272896 5.56983948 14.04277039 C5.56636149 16.58652585 5.52749336 19.12844029 5.48828125 21.671875 C5.4789538 23.43734741 5.47183737 25.20283277 5.46684265 26.96832275 C5.44776731 31.61126544 5.39866223 36.25342393 5.34332275 40.89605713 C5.29214163 45.63502392 5.26933106 50.37411764 5.24414062 55.11328125 C5.19054375 64.4091984 5.10522467 73.70453395 5 83 C4.67 83 4.34 83 4 83 C3.67 57.92 3.34 32.84 3 7 C2.34 6.67 1.68 6.34 1 6 C1 5.01 1 4.02 1 3 C-0.65 2.67 -2.3 2.34 -4 2 C-2.68 1.34 -1.36 0.68 0 0 Z " fill="#0C0B0C" transform="translate(805,582)"/>
<path d="M0 0 C0.33 0 0.66 0 1 0 C1.01030746 0.68016174 1.02061493 1.36032349 1.03123474 2.06109619 C1.13933019 9.13376418 1.25392595 16.20630556 1.37231445 23.27880859 C1.41565349 25.91908115 1.4573293 28.55938155 1.49731445 31.19970703 C1.55504166 34.99259842 1.61872949 38.78534979 1.68359375 42.578125 C1.70030624 43.76053772 1.71701874 44.94295044 1.73423767 46.16119385 C1.75418289 47.26203308 1.77412811 48.36287231 1.79467773 49.49707031 C1.81799416 50.94935028 1.81799416 50.94935028 1.84178162 52.43096924 C1.91698828 54.96354496 1.91698828 54.96354496 2.56507874 57.20794678 C3 59 3 59 2.1640625 61.17578125 C0.24759818 63.83645633 -1.13464873 65.3432761 -4 67 C-9.649747 67.74183036 -15.40054888 66.80622018 -21 66 C-21 65.67 -21 65.34 -21 65 C-19.89140625 64.96261719 -18.7828125 64.92523437 -17.640625 64.88671875 C-16.17705026 64.82104552 -14.71351009 64.75459865 -13.25 64.6875 C-12.52039063 64.66494141 -11.79078125 64.64238281 -11.0390625 64.61914062 C-6.73176784 64.40377589 -4.04361581 64.12574044 -1 61 C-0.38122158 58.24381653 -0.38122158 58.24381653 -0.45410156 55.05981445 C-0.43438293 53.83877518 -0.41466431 52.6177359 -0.39434814 51.35969543 C-0.39311951 50.04087875 -0.39189087 48.72206207 -0.390625 47.36328125 C-0.37564487 45.99991386 -0.35891806 44.63656462 -0.34051514 43.27323914 C-0.29680937 39.68772555 -0.27683584 36.10245673 -0.26177979 32.51672363 C-0.24221996 28.85670477 -0.20024885 25.19695072 -0.16015625 21.53710938 C-0.08481953 14.35814405 -0.03454954 7.17928974 0 0 Z " fill="#D6D6D7" transform="translate(337,616)"/>
<path d="M0 0 C2.91889148 -0.16216064 5.82879225 -0.28091202 8.75 -0.375 C9.9875 -0.45041016 9.9875 -0.45041016 11.25 -0.52734375 C13.63082547 -0.58494437 15.67924741 -0.54033755 18 0 C21.80109444 3.90035497 22.56876612 7.27373009 22.5625 12.625 C22.58441406 13.73101563 22.60632813 14.83703125 22.62890625 15.9765625 C22 19 22 19 19.46484375 21.3984375 C18.65144531 21.92695312 17.83804688 22.45546875 17 23 C16 20 16 20 16.921875 18.1328125 C17.27765625 17.42898438 17.6334375 16.72515625 18 16 C18.31407971 13.47870755 18.31407971 13.47870755 18.25 10.875 C18.25515625 10.00617187 18.2603125 9.13734375 18.265625 8.2421875 C18.2106341 5.79796113 18.2106341 5.79796113 16 4 C16 3.01 16 2.02 16 1 C10.72 1 5.44 1 0 1 C0 0.67 0 0.34 0 0 Z " fill="#393839" transform="translate(858,580)"/>
<path d="M0 0 C1.42022461 -0.00386719 1.42022461 -0.00386719 2.86914062 -0.0078125 C3.85720703 -0.00007812 4.84527344 0.00765625 5.86328125 0.015625 C6.83201172 0.00789062 7.80074219 0.00015625 8.79882812 -0.0078125 C14.60436521 0.00788875 19.61095235 0.60211743 25.17578125 2.265625 C25.17578125 2.925625 25.17578125 3.585625 25.17578125 4.265625 C25.83578125 4.595625 26.49578125 4.925625 27.17578125 5.265625 C26.31597656 5.12125 25.45617187 4.976875 24.5703125 4.828125 C16.33848335 3.53544954 8.51866428 3.01617003 0.17578125 3.265625 C0.17578125 2.605625 0.17578125 1.945625 0.17578125 1.265625 C-2.46421875 1.595625 -5.10421875 1.925625 -7.82421875 2.265625 C-4.60408 0.11886584 -3.7119488 0.00979314 0 0 Z " fill="#090809" transform="translate(621.82421875,579.734375)"/>
<path d="M0 0 C1.2365332 -0.03673828 1.2365332 -0.03673828 2.49804688 -0.07421875 C8.57350074 -0.10383104 8.57350074 -0.10383104 11.12890625 2.3984375 C11.59103516 3.37683594 11.59103516 3.37683594 12.0625 4.375 C11.4025 5.035 10.7425 5.695 10.0625 6.375 C9.23878906 5.64410156 9.23878906 5.64410156 8.3984375 4.8984375 C4.3068058 2.22998204 -0.21813593 2.84381616 -4.9375 3.375 C-8.4938993 4.68703733 -8.4938993 4.68703733 -10.9375 6.375 C-10.9375 -1.2758154 -6.12012153 0.00952548 0 0 Z " fill="#111111" transform="translate(841.9375,555.625)"/>
<path d="M0 0 C1.27746094 -0.00257813 2.55492187 -0.00515625 3.87109375 -0.0078125 C7.2017337 0.11202005 10.29614456 0.48889369 13.5625 1.125 C13.2325 2.115 12.9025 3.105 12.5625 4.125 C9.33303202 3.98540799 6.10401309 3.83721895 2.875 3.6875 C1.96298828 3.64818359 1.05097656 3.60886719 0.11132812 3.56835938 C-1.21801758 3.50551758 -1.21801758 3.50551758 -2.57421875 3.44140625 C-3.38592529 3.40474854 -4.19763184 3.36809082 -5.03393555 3.33032227 C-7.55894485 3.11462569 -9.96350697 2.66600548 -12.4375 2.125 C-12.4375 1.795 -12.4375 1.465 -12.4375 1.125 C-8.24876376 0.11198509 -4.3024411 -0.00866554 0 0 Z " fill="#302F30" transform="translate(1025.4375,578.875)"/>
<path d="M0 0 C-0.99 0.33 -1.98 0.66 -3 1 C-3 1.66 -3 2.32 -3 3 C-4.81325551 2.88648483 -6.62563357 2.75887039 -8.4375 2.625 C-9.95150391 2.52058594 -9.95150391 2.52058594 -11.49609375 2.4140625 C-12.32238281 2.27742187 -13.14867187 2.14078125 -14 2 C-14.33 1.34 -14.66 0.68 -15 0 C-20.94 0 -26.88 0 -33 0 C-33 -0.33 -33 -0.66 -33 -1 C-21.98174899 -3.09871448 -10.9194712 -2.23989153 0 0 Z " fill="#444445" transform="translate(273,541)"/>
<path d="M0 0 C3.58326501 -0.05814085 7.16640838 -0.09364357 10.75 -0.125 C11.76578125 -0.14175781 12.7815625 -0.15851562 13.828125 -0.17578125 C14.8078125 -0.18222656 15.7875 -0.18867187 16.796875 -0.1953125 C17.69760742 -0.20578613 18.59833984 -0.21625977 19.52636719 -0.22705078 C22.13926856 0.01278324 23.75664666 0.67687936 26 2 C22.86149936 2.92553743 20.06319222 3.11664647 16.796875 3.09765625 C15.8171875 3.09443359 14.8375 3.09121094 13.828125 3.08789062 C12.81234375 3.07951172 11.7965625 3.07113281 10.75 3.0625 C9.203125 3.05573242 9.203125 3.05573242 7.625 3.04882812 C5.08327427 3.03706088 2.54166681 3.02062011 0 3 C0 2.01 0 1.02 0 0 Z " fill="#131213" transform="translate(923,580)"/>
<path d="M0 0 C11.7536178 -0.85584596 11.7536178 -0.85584596 15.75 1.625 C18.77809824 4.64424415 18.35029661 8.24055731 18.375 12.3125 C18.27871548 14.54309147 18.16271111 16.77326829 18 19 C17.67 19 17.34 19 17 19 C16.67 15.37 16.34 11.74 16 8 C15.34 8 14.68 8 14 8 C13.34 6.02 12.68 4.04 12 2 C8.04 2 4.08 2 0 2 C0 1.34 0 0.68 0 0 Z " fill="#424242" transform="translate(352,580)"/>
<path d="M0 0 C1.3293457 0.00483398 1.3293457 0.00483398 2.68554688 0.00976562 C4.05356445 0.02233398 4.05356445 0.02233398 5.44921875 0.03515625 C6.38056641 0.03966797 7.31191406 0.04417969 8.27148438 0.04882812 C10.55996248 0.06056391 12.84830683 0.07698262 15.13671875 0.09765625 C15.13671875 1.08765625 15.13671875 2.07765625 15.13671875 3.09765625 C12.46998133 3.1249297 9.80353006 3.14462573 7.13671875 3.16015625 C6.02103516 3.17272461 6.02103516 3.17272461 4.8828125 3.18554688 C-0.12476969 3.20731897 -4.90607157 2.81307174 -9.86328125 2.09765625 C-9.86328125 1.76765625 -9.86328125 1.43765625 -9.86328125 1.09765625 C-6.51236354 0.34402573 -3.43218313 -0.02214312 0 0 Z " fill="#131213" transform="translate(528.86328125,579.90234375)"/>
<path d="M0 0 C1.875 0.1875 1.875 0.1875 4 1 C5.52164099 3.89111788 6 5.71823412 6 9 C6.556875 9.226875 7.11375 9.45375 7.6875 9.6875 C10.63246684 11.35896766 12.68156544 13.55276352 15 16 C14.01 16.33 13.02 16.66 12 17 C5.95987819 12.92948313 1.49731087 7.22895248 0 0 Z " fill="#131314" transform="translate(831,660)"/>
<path d="M0 0 C0.66 0.33 1.32 0.66 2 1 C-0.95355682 4.44581629 -4.01673225 6.15735156 -8.04296875 8.0546875 C-10.17547897 9.04444048 -10.17547897 9.04444048 -12.75 10.6875 C-14.87482994 11.92698413 -16.59632085 12.55487423 -19 13 C-14.70453259 8.13180361 -9.64934204 5.13239941 -4 2 C-3.27941406 1.59136719 -2.55882812 1.18273437 -1.81640625 0.76171875 C-1.21699219 0.51035156 -0.61757812 0.25898437 0 0 Z " fill="#242324" transform="translate(226,544)"/>
<path d="M0 0 C6 2 12 4 18 6 C18 6.99 18 7.98 18 9 C10.83292123 8.67422369 5.23072876 5.34556372 -1 2 C-0.67 1.34 -0.34 0.68 0 0 Z " fill="#181819" transform="translate(506,673)"/>
<path d="M0 0 C5.46727972 2.44462067 9.8047298 6.55749134 12.4375 11.9375 C12.623125 12.618125 12.80875 13.29875 13 14 C10 14 10 14 8.28125 12.35546875 C7.6934375 11.64003906 7.105625 10.92460938 6.5 10.1875 C4.02083828 7.18341784 4.02083828 7.18341784 1.28125 4.42578125 C0 3 0 3 0 0 Z " fill="#141314" transform="translate(961,588)"/>
<path d="M0 0 C7.92 0 15.84 0 24 0 C24 0.33 24 0.66 24 1 C22.35 1.33 20.7 1.66 19 2 C19 2.33 19 2.66 19 3 C13.06 3 7.12 3 1 3 C0.67 2.01 0.34 1.02 0 0 Z " fill="#141314" transform="translate(412,580)"/>
<path d="M0 0 C5.58531202 0.23272133 9.07370365 1.74853739 13.46484375 5.234375 C15 7 15 7 15.5 10.875 C15.335 11.90625 15.17 12.9375 15 14 C14.5875 13.4225 14.175 12.845 13.75 12.25 C11.11044875 8.85629125 9.13626549 6.37875516 5 5 C4.67 4.34 4.34 3.68 4 3 C1.98330173 1.86649466 1.98330173 1.86649466 0 1 C0 0.67 0 0.34 0 0 Z " fill="#100F10" transform="translate(753,586)"/>
<path d="M0 0 C1.49609375 1.359375 1.49609375 1.359375 3 3 C3.11417305 7.11022993 1.06982192 10.64284191 -1.5703125 13.68359375 C-7.2235628 16.7465284 -14.86120791 14.81349249 -21 14 C-21 13.67 -21 13.34 -21 13 C-19.89140625 12.96261719 -18.7828125 12.92523437 -17.640625 12.88671875 C-16.17705026 12.82104552 -14.71351009 12.75459865 -13.25 12.6875 C-12.52039063 12.66494141 -11.79078125 12.64238281 -11.0390625 12.61914062 C-7.88096002 12.4612355 -5.37012592 12.18740553 -2.53125 10.75 C-0.60704749 8.55091142 -0.41769591 7.20525443 -0.25 4.3125 C-0.19328125 3.50425781 -0.1365625 2.69601562 -0.078125 1.86328125 C-0.05234375 1.24839844 -0.0265625 0.63351562 0 0 Z " fill="#C7C7C7" transform="translate(337,668)"/>
<path d="M0 0 C0.66 0.33 1.32 0.66 2 1 C0.33333333 2.66666667 -1.33333333 4.33333333 -3 6 C-3.86625 6.9075 -4.7325 7.815 -5.625 8.75 C-8 11 -8 11 -11 12 C-11.33 13.65 -11.66 15.3 -12 17 C-12.66 17 -13.32 17 -14 17 C-11.81580212 8.66033538 -6.87221604 4.58147736 0 0 Z " fill="#1C1B1C" transform="translate(1004,583)"/>
<path d="M0 0 C-0.33 0.66 -0.66 1.32 -1 2 C-1.66 2 -2.32 2 -3 2 C-4.32 4.64 -5.64 7.28 -7 10 C-7.33 10 -7.66 10 -8 10 C-8.33 12.97 -8.66 15.94 -9 19 C-9.33 19 -9.66 19 -10 19 C-10.90942542 6.55434475 -10.90942542 6.55434475 -8.8046875 2.95703125 C-5.78988402 0.37399611 -3.97233635 0 0 0 Z " fill="#333333" transform="translate(829,580)"/>
<path d="M0 0 C3.08259599 3.52296684 4.86509158 7.48717517 6 12 C5.6875 15 5.6875 15 5 17 C3.0549 14.08235 2.54723683 12.37462715 2 9 C1.34 9 0.68 9 0 9 C0 6.03 0 3.06 0 0 Z " fill="#131213" transform="translate(468,603)"/>
<path d="M0 0 C0.66 0.33 1.32 0.66 2 1 C2 1.66 2 2.32 2 3 C-0.48884559 5.1274887 -3.09890916 7.05895415 -5.71484375 9.02734375 C-8.2398513 10.8670808 -8.2398513 10.8670808 -9 14 C-9.99 14.33 -10.98 14.66 -12 15 C-10.57641609 10.45925821 -8.27867927 7.96026853 -4.875 4.6875 C-3.96492187 3.80449219 -3.05484375 2.92148437 -2.1171875 2.01171875 C-1.41851562 1.34785156 -0.71984375 0.68398438 0 0 Z " fill="#111011" transform="translate(206,557)"/>
<path d="M0 0 C1.875 0.25 1.875 0.25 4 1 C5.25 3.0625 5.25 3.0625 6 5 C6.66 5 7.32 5 8 5 C8.28875 5.61875 8.5775 6.2375 8.875 6.875 C9.93720042 9.13325765 9.93720042 9.13325765 12 11 C11.01 11.33 10.02 11.66 9 12 C5.7 8.7 2.4 5.4 -1 2 C-0.67 1.34 -0.34 0.68 0 0 Z " fill="#131313" transform="translate(198,656)"/>
<path d="M0 0 C0.66 0.33 1.32 0.66 2 1 C1.67 2.11375 1.34 3.2275 1 4.375 C-0.088643 7.69459717 -0.088643 7.69459717 0 10 C0.66 10 1.32 10 2 10 C1.67 11.32 1.34 12.64 1 14 C-1 12.4375 -1 12.4375 -3 10 C-3.74195584 3.95835962 -3.74195584 3.95835962 -1.5 1.0625 C-1.005 0.711875 -0.51 0.36125 0 0 Z " fill="#171617" transform="translate(988,655)"/>
<path d="M0 0 C3.83310811 0.02060811 3.83310811 0.02060811 6.125 2.3125 C6.455 2.9725 6.785 3.6325 7.125 4.3125 C6.465 4.9725 5.805 5.6325 5.125 6.3125 C4.3825 5.8175 3.64 5.3225 2.875 4.8125 C0.06181812 2.99326525 0.06181812 2.99326525 -3.875 3.3125 C-4.535 3.9725 -5.195 4.6325 -5.875 5.3125 C-4.76212242 0.38404213 -4.76212242 0.38404213 0 0 Z " fill="#161616" transform="translate(961.875,650.6875)"/>
<path d="M0 0 C0.99 0 1.98 0 3 0 C3 4.62 3 9.24 3 14 C2.01 14.33 1.02 14.66 0 15 C0 10.05 0 5.1 0 0 Z " fill="#0B0B0B" transform="translate(1065,643)"/>
<path d="M0 0 C-2.13802098 2.32509781 -4.18598137 3.82167236 -7 5.25 C-8.0209375 5.78367187 -8.0209375 5.78367187 -9.0625 6.328125 C-11 7 -11 7 -14 6 C-10.27760272 1.65720317 -5.71590529 -0.50434458 0 0 Z " fill="#151415" transform="translate(970,672)"/>
<path d="M0 0 C3.44536172 0.25521198 4.18975817 1.21289941 6.5625 3.875 C7.366875 4.90625 8.17125 5.9375 9 7 C9.98290968 8.01680311 10.97334787 9.02738219 12 10 C11.67 10.66 11.34 11.32 11 12 C9.72799029 10.89718873 8.45744147 9.79269231 7.1875 8.6875 C6.47980469 8.07261719 5.77210938 7.45773437 5.04296875 6.82421875 C1.3771204 3.55088953 1.3771204 3.55088953 0 2 C0 1.34 0 0.68 0 0 Z " fill="#151515" transform="translate(493,662)"/>
<path d="M0 0 C0.66 0.99 1.32 1.98 2 3 C-2.36790607 8.70254403 -2.36790607 8.70254403 -5.125 10 C-7 10 -7 10 -10 8 C-9.05125 7.566875 -8.1025 7.13375 -7.125 6.6875 C-3.79958063 5.20697799 -3.79958063 5.20697799 -2 2 C-1.34 2 -0.68 2 0 2 C0 1.34 0 0.68 0 0 Z " fill="#0F0E0F" transform="translate(1105,673)"/>
<path d="M0 0 C2.35448675 -0.05454409 4.70767875 -0.0939279 7.0625 -0.125 C9.02896484 -0.15980469 9.02896484 -0.15980469 11.03515625 -0.1953125 C15.11824299 0.00582478 18.14999053 0.72834538 22 2 C22 2.66 22 3.32 22 4 C19.69 4 17.38 4 15 4 C14.67 3.34 14.34 2.68 14 2 C10.72444392 1.52998967 10.72444392 1.52998967 6.9375 1.375 C5.00197266 1.26285156 5.00197266 1.26285156 3.02734375 1.1484375 C1.52880859 1.07496094 1.52880859 1.07496094 0 1 C0 0.67 0 0.34 0 0 Z " fill="#4A494A" transform="translate(722,579)"/>
<path d="M0 0 C7.95393759 4.35215453 7.95393759 4.35215453 10 7 C10 7.66 10 8.32 10 9 C7.03 8.01 4.06 7.02 1 6 C0.67 4.02 0.34 2.04 0 0 Z " fill="#0E0D0E" transform="translate(451,587)"/>
<path d="M0 0 C0.66 0 1.32 0 2 0 C2 5.28 2 10.56 2 16 C1.01 16 0.02 16 -1 16 C-0.67 10.72 -0.34 5.44 0 0 Z " fill="#F6F6F6" transform="translate(370,584)"/>
<path d="M0 0 C-4.05808065 2.7053871 -8.04889399 5 -13 5 C-8.53773904 -0.80093925 -7.26234473 -1.21039079 0 0 Z " fill="#242324" transform="translate(1003,648)"/>
<path d="M0 0 C-6.33333333 4.22222222 -6.33333333 4.22222222 -10.8125 3.625 C-11.534375 3.41875 -12.25625 3.2125 -13 3 C-8.37457597 -0.66843975 -5.79791523 -1.15958305 0 0 Z " fill="#1F1F1F" transform="translate(617,583)"/>
<path d="M0 0 C0.99 0.33 1.98 0.66 3 1 C0.19195732 3.96404505 -2.18315774 6.44499019 -6 8 C-6.66 7.34 -7.32 6.68 -8 6 C-6.7391988 4.96680187 -5.46596742 3.94875621 -4.1875 2.9375 C-3.47980469 2.36902344 -2.77210938 1.80054688 -2.04296875 1.21484375 C-1.36878906 0.81394531 -0.69460938 0.41304687 0 0 Z " fill="#181718" transform="translate(299,665)"/>
<path d="M0 0 C0.33 0 0.66 0 1 0 C2.84324324 8.62972973 2.84324324 8.62972973 0.90625 11.77734375 C-1.5711666 13.95772316 -3.60458072 14.95701964 -6.875 15.3125 C-7.926875 15.1578125 -7.926875 15.1578125 -9 15 C-6 13 -6 13 -3.375 12 C-0.44278498 9.5307663 -0.54915257 8.52861118 -0.1875 4.8125 C-0.1026414 3.20936059 -0.03312469 1.60504196 0 0 Z " fill="#B6B6B6" transform="translate(883,667)"/>
<path d="M0 0 C5.445 1.485 5.445 1.485 11 3 C10.67 3.66 10.34 4.32 10 5 C7.69 5 5.38 5 3 5 C3 4.34 3 3.68 3 3 C2.01 2.67 1.02 2.34 0 2 C0 1.34 0 0.68 0 0 Z " fill="#151515" transform="translate(735,619)"/>
<path d="M0 0 C0.80244141 0.0515625 1.60488281 0.103125 2.43164062 0.15625 C3.68170898 0.25292969 3.68170898 0.25292969 4.95703125 0.3515625 C6.22450195 0.43664062 6.22450195 0.43664062 7.51757812 0.5234375 C9.60224342 0.66477074 11.68599991 0.819395 13.76953125 0.9765625 C13.76953125 1.3065625 13.76953125 1.6365625 13.76953125 1.9765625 C7.33453125 2.4715625 7.33453125 2.4715625 0.76953125 2.9765625 C0.76953125 2.3165625 0.76953125 1.6565625 0.76953125 0.9765625 C-1.87046875 1.3065625 -4.51046875 1.6365625 -7.23046875 1.9765625 C-4.0556343 -0.1399938 -3.5634787 -0.25272899 0 0 Z " fill="#2A292A" transform="translate(621.23046875,580.0234375)"/>
<path d="M0 0 C0.66 0.66 1.32 1.32 2 2 C0.02 4.31 -1.96 6.62 -4 9 C-4.66 8.67 -5.32 8.34 -6 8 C-4.55746343 4.63408134 -2.66735273 2.48952921 0 0 Z " fill="#171717" transform="translate(303,567)"/>
<path d="M0 0 C1.875 0.1875 1.875 0.1875 4 1 C5.5225431 3.68257593 6.12235992 5.24544717 5.625 8.3125 C5.41875 8.869375 5.2125 9.42625 5 10 C0.57142857 3.71428571 0.57142857 3.71428571 0 0 Z " fill="#1B1A1B" transform="translate(831,660)"/>
<path d="M0 0 C7.34693878 -0.48979592 7.34693878 -0.48979592 10.5 1.875 C12 4 12 4 12 6 C10.68 5.67 9.36 5.34 8 5 C8 4.34 8 3.68 8 3 C7.4225 2.87625 6.845 2.7525 6.25 2.625 C3.97664233 1.99351176 2.0746471 1.11141809 0 0 Z " fill="#282828" transform="translate(870,657)"/>
<path d="M0 0 C0.9796875 -0.01417969 1.959375 -0.02835938 2.96875 -0.04296875 C5.5 0.1875 5.5 0.1875 7.5 2.1875 C4.0275795 3.05560513 1.91868609 3.06974157 -1.5 2.1875 C-2.551875 2.4659375 -2.551875 2.4659375 -3.625 2.75 C-4.24375 2.894375 -4.8625 3.03875 -5.5 3.1875 C-6.16 2.5275 -6.82 1.8675 -7.5 1.1875 C-4.89820337 -0.11339831 -2.9030812 0.01909922 0 0 Z " fill="#1D1D1D" transform="translate(1093.5,652.8125)"/>
<path d="M0 0 C3.53372712 1.96318174 6.24479785 4.04070881 9 7 C5.70776216 7 3.91489643 6.49481868 1 5 C-0.3125 2.875 -0.3125 2.875 -1 1 C-0.67 0.67 -0.34 0.34 0 0 Z " fill="#161516" transform="translate(659,588)"/>
<path d="M0 0 C-1.43120744 0.55808089 -2.87030355 1.09596462 -4.3125 1.625 C-5.11300781 1.92664063 -5.91351563 2.22828125 -6.73828125 2.5390625 C-7.48464844 2.69117188 -8.23101562 2.84328125 -9 3 C-9.99 2.34 -10.98 1.68 -12 1 C-10.75835303 0.43945064 -9.50616116 -0.09777907 -8.25 -0.625 C-7.55390625 -0.92664063 -6.8578125 -1.22828125 -6.140625 -1.5390625 C-3.41644339 -2.12565635 -2.31280265 -1.44810616 0 0 Z " fill="#161616" transform="translate(410,584)"/>
<path d="M0 0 C3.465 1.98 3.465 1.98 7 4 C7 4.99 7 5.98 7 7 C4.36 6.01 1.72 5.02 -1 4 C-0.67 2.68 -0.34 1.36 0 0 Z " fill="#111011" transform="translate(294,551)"/>
<path d="M0 0 C2.64752004 2.57784846 4.94432065 4.91648098 7 8 C6.01 8.66 5.02 9.32 4 10 C3.67 9.01 3.34 8.02 3 7 C2.505 6.505 2.01 6.01 1.5 5.5 C0 4 0 4 -1 1 C-0.67 0.67 -0.34 0.34 0 0 Z " fill="#0F0F10" transform="translate(218,638)"/>
<path d="M0 0 C1.485 0.99 1.485 0.99 3 2 C3.6875 5.625 3.6875 5.625 4 9 C3.01 9.495 3.01 9.495 2 10 C1.01 7.03 0.02 4.06 -1 1 C-0.67 0.67 -0.34 0.34 0 0 Z " fill="#131213" transform="translate(186,633)"/>
<path d="M0 0 C3.53600465 1.91135386 5.78972846 3.62642766 8 7 C7.34 7.66 6.68 8.32 6 9 C5.67 8.01 5.34 7.02 5 6 C4.34 6 3.68 6 3 6 C1.61767557 4.37373596 0.28062485 2.7074998 -1 1 C-0.67 0.67 -0.34 0.34 0 0 Z " fill="#0D0D0D" transform="translate(564,589)"/>
<path d="M0 0 C0.7425 0.61875 1.485 1.2375 2.25 1.875 C4.48801188 3.60437281 6.43739987 4.86106661 9 6 C6.25 6.75 6.25 6.75 3 7 C0.625 5.0625 0.625 5.0625 -1 3 C-0.67 2.01 -0.34 1.02 0 0 Z " fill="#131313" transform="translate(786,674)"/>
<path d="M0 0 C3.3 0.33 6.6 0.66 10 1 C5.78370866 3.10814567 3.60209225 3.17700355 -1 3 C-0.67 2.01 -0.34 1.02 0 0 Z " fill="#222122" transform="translate(939,580)"/>
<path d="M0 0 C0.66 0 1.32 0 2 0 C1.34 4.29 0.68 8.58 0 13 C-0.33 13 -0.66 13 -1 13 C-1.22245393 11.39773045 -1.42746669 9.79303233 -1.625 8.1875 C-1.74101563 7.29417969 -1.85703125 6.40085937 -1.9765625 5.48046875 C-2 3 -2 3 0 0 Z " fill="#141314" transform="translate(784,541)"/>
<path d="M0 0 C0 0.99 0 1.98 0 3 C-6.52307692 2.38461538 -6.52307692 2.38461538 -8.9375 0.4375 C-9.288125 -0.036875 -9.63875 -0.51125 -10 -1 C-6.06329512 -2.31223496 -3.87511856 -1.24296256 0 0 Z " fill="#2B2A2B" transform="translate(524,679)"/>
<path d="M0 0 C0.66 0.99 1.32 1.98 2 3 C-0.97 5.475 -0.97 5.475 -4 8 C-4.66 7.34 -5.32 6.68 -6 6 C-5.01 5.67 -4.02 5.34 -3 5 C-1.8499169 3.03327085 -1.8499169 3.03327085 -1 1 C-0.67 0.67 -0.34 0.34 0 0 Z " fill="#141314" transform="translate(764,667)"/>
<path d="M0 0 C0.66 0.33 1.32 0.66 2 1 C-0.625 5.875 -0.625 5.875 -4 7 C-4.66 6.34 -5.32 5.68 -6 5 C-4.02 3.35 -2.04 1.7 0 0 Z " fill="#1F1F1F" transform="translate(285,644)"/>
<path d="M0 0 C3.3125 -0.25 3.3125 -0.25 7 0 C8.9375 2 8.9375 2 10 4 C9.34 4.66 8.68 5.32 8 6 C7.01 5.34 6.02 4.68 5 4 C5 3.01 5 2.02 5 1 C3.35 1 1.7 1 0 1 C0 0.67 0 0.34 0 0 Z " fill="#19191A" transform="translate(287,643)"/>
<path d="M0 0 C-1.49097658 3.7952131 -3.75700849 5.61042731 -7 8 C-7.66 7.67 -8.32 7.34 -9 7 C-7.88121617 5.82737096 -6.75476949 4.66204862 -5.625 3.5 C-4.68527344 2.52546875 -4.68527344 2.52546875 -3.7265625 1.53125 C-2 0 -2 0 0 0 Z " fill="#0F0F0F" transform="translate(596,593)"/>
<path d="M0 0 C5.45454545 0.45454545 5.45454545 0.45454545 8 3 C3.94568308 4.15837626 1.78187881 3.83691257 -2 2 C-1.34 1.34 -0.68 0.68 0 0 Z " fill="#1D1D1D" transform="translate(1045,583)"/>
<path d="M0 0 C0 0.99 0 1.98 0 3 C-1.96466413 4.06775224 -3.96855359 5.06553465 -6 6 C-6.66 5.67 -7.32 5.34 -8 5 C-5.47211993 2.20127563 -3.79588866 0.54226981 0 0 Z " fill="#181718" transform="translate(346,582)"/>
<path d="M0 0 C1.65 1.32 3.3 2.64 5 4 C4.67 4.66 4.34 5.32 4 6 C3.01 6 2.02 6 1 6 C1 5.01 1 4.02 1 3 C-0.65 2.67 -2.3 2.34 -4 2 C-2.68 1.34 -1.36 0.68 0 0 Z " fill="#141414" transform="translate(805,582)"/>
<path d="M0 0 C3.96 0.99 3.96 0.99 8 2 C4.1496895 4.56687367 2.41430237 3.83288724 -2 3 C-1.34 2.67 -0.68 2.34 0 2 C0 1.34 0 0.68 0 0 Z " fill="#1E1E1E" transform="translate(918,677)"/>
<path d="M0 0 C0.66 0.99 1.32 1.98 2 3 C1.01 4.98 0.02 6.96 -1 9 C-1.66 8.67 -2.32 8.34 -3 8 C-1.125 1.125 -1.125 1.125 0 0 Z " fill="#0C0B0C" transform="translate(470,650)"/>
<path d="M0 0 C2.12046792 3.53411321 2.53199289 6.94393835 3 11 C2.01 10.67 1.02 10.34 0 10 C-0.74926071 6.33694766 -1.2380014 3.57644848 0 0 Z " fill="#0E0D0E" transform="translate(580,638)"/>
<path d="M0 0 C0 3.15081975 -0.27898465 4.41847698 -2 7 C-4.125 7.75 -4.125 7.75 -6 8 C-4.125 3.25 -4.125 3.25 -3 1 C-2.01 0.67 -1.02 0.34 0 0 Z " fill="#1E1D1E" transform="translate(588,602)"/>
<path d="M0 0 C0.33 0 0.66 0 1 0 C1.3669579 6.48292295 1.3669579 6.48292295 -0.375 8.9375 C-2 10 -2 10 -4 10 C-4.33 9.01 -4.66 8.02 -5 7 C-4.0409375 6.6596875 -4.0409375 6.6596875 -3.0625 6.3125 C-0.72806339 5.14749104 -0.72806339 5.14749104 -0.25 2.375 C-0.1675 1.59125 -0.085 0.8075 0 0 Z " fill="#1B1A1B" transform="translate(368,594)"/>
<path d="M0 0 C1.32 0.66 2.64 1.32 4 2 C2.8553125 2.6496875 2.8553125 2.6496875 1.6875 3.3125 C-0.58093768 4.73686785 -2.2199723 6.03260097 -4 8 C-3.50168276 4.31245243 -2.89932357 2.39509338 0 0 Z " fill="#191919" transform="translate(315,587)"/>
<path d="M0 0 C0.66 0.99 1.32 1.98 2 3 C1.1875 4.9375 1.1875 4.9375 0 7 C-0.99 7.33 -1.98 7.66 -3 8 C-3.33 7.01 -3.66 6.02 -4 5 C-3.01 4.34 -2.02 3.68 -1 3 C-0.67 2.01 -0.34 1.02 0 0 Z " fill="#111011" transform="translate(807,673)"/>
<path d="M0 0 C2.4375 0.75 2.4375 0.75 5 2 C5.8125 4.125 5.8125 4.125 6 6 C2.535 4.02 2.535 4.02 -1 2 C-0.67 1.34 -0.34 0.68 0 0 Z " fill="#1D1D1D" transform="translate(391,670)"/>
<path d="M0 0 C0.99 0.33 1.98 0.66 3 1 C1.68 3.31 0.36 5.62 -1 8 C-1.66 7.67 -2.32 7.34 -3 7 C-2.690625 6.401875 -2.38125 5.80375 -2.0625 5.1875 C-0.89790296 2.91043228 -0.89790296 2.91043228 0 0 Z " fill="#131213" transform="translate(1062,663)"/>
<path d="M0 0 C0.99 0 1.98 0 3 0 C3.66 1.65 4.32 3.3 5 5 C2 5 2 5 -1 3 C-0.67 2.01 -0.34 1.02 0 0 Z " fill="#191819" transform="translate(691,665)"/>
<path d="M0 0 C0.99 0 1.98 0 3 0 C3.125 3.375 3.125 3.375 3 7 C2.34 7.66 1.68 8.32 1 9 C0.67 6.03 0.34 3.06 0 0 Z " fill="#1D1D1D" transform="translate(372,639)"/>
<path d="M0 0 C0.66 0.33 1.32 0.66 2 1 C-0.3125 3.5 -0.3125 3.5 -3 6 C-3.99 6 -4.98 6 -6 6 C-4 4 -2 2 0 0 Z " fill="#111011" transform="translate(506,587)"/>
<path d="M0 0 C0.99 0 1.98 0 3 0 C3 1.98 3 3.96 3 6 C2.34 6 1.68 6 1 6 C0.67 6.66 0.34 7.32 0 8 C-0.98120464 4.94736336 -0.98120464 3.05263664 0 0 Z " fill="#111111" transform="translate(186,585)"/>
<path d="M0 0 C-0.99 1.485 -0.99 1.485 -2 3 C-5.3 2.67 -8.6 2.34 -12 2 C-12 1.67 -12 1.34 -12 1 C-7.9472484 0.01751476 -4.16138263 -0.08159574 0 0 Z " fill="#2C2C2C" transform="translate(531,580)"/>
<path d="M0 0 C3.41021743 0.78697325 6.68885166 1.87119943 10 3 C8.3125 4.125 8.3125 4.125 6 5 C3.3125 4.3125 3.3125 4.3125 1 3 C0.67 2.01 0.34 1.02 0 0 Z " fill="#E4E4E4" transform="translate(282,578)"/>
<path d="M0 0 C0.66 0.66 1.32 1.32 2 2 C-0.25 3.625 -0.25 3.625 -3 5 C-5.3125 4.1875 -5.3125 4.1875 -7 3 C-4.69 2.01 -2.38 1.02 0 0 Z " fill="#0D0C0D" transform="translate(880,676)"/>
<path d="M0 0 C1.67542976 0.28604898 3.34385343 0.61781233 5 1 C4.67 2.65 4.34 4.3 4 6 C2.35 4.35 0.7 2.7 -1 1 C-0.67 0.67 -0.34 0.34 0 0 Z " fill="#151415" transform="translate(591,664)"/>
<path d="M0 0 C1.875 0.1875 1.875 0.1875 4 1 C5.25 3.5625 5.25 3.5625 6 6 C5.01 6 4.02 6 3 6 C2.01 4.02 1.02 2.04 0 0 Z " fill="#141414" transform="translate(378,657)"/>
<path d="M0 0 C0.66 0.99 1.32 1.98 2 3 C0.68 4.65 -0.64 6.3 -2 8 C-2.33 7.01 -2.66 6.02 -3 5 C-1.5625 2.3125 -1.5625 2.3125 0 0 Z " fill="#121112" transform="translate(676,651)"/>
<path d="M0 0 C2.88575819 0.39803561 3.82189513 0.79009069 5.75 3.0625 C6.1625 3.701875 6.575 4.34125 7 5 C6.01 5.495 6.01 5.495 5 6 C3.31237149 4.3545622 1.6459651 2.68711423 0 1 C0 0.67 0 0.34 0 0 Z " fill="#E9E9E9" transform="translate(915,649)"/>
<path d="M0 0 C0.33 0.66 0.66 1.32 1 2 C1.66 2 2.32 2 3 2 C3.1875 4.875 3.1875 4.875 3 8 C2.01 8.66 1.02 9.32 0 10 C0 6.7 0 3.4 0 0 Z " fill="#0E0D0E" transform="translate(450,626)"/>
<path d="M0 0 C4.95 0.99 4.95 0.99 10 2 C5.64467851 4.17766075 4.53374042 4.03039555 0 3 C0 2.01 0 1.02 0 0 Z " fill="#242425" transform="translate(1021,616)"/>
<path d="M0 0 C-0.33 0.66 -0.66 1.32 -1 2 C-3.875 2.125 -3.875 2.125 -7 2 C-7.66 1.34 -8.32 0.68 -9 0 C-5.52176885 -1.15941038 -3.54104422 -0.70820884 0 0 Z " fill="#373737" transform="translate(1056,610)"/>
<path d="M0 0 C3.465 1.98 3.465 1.98 7 4 C6.34 4.66 5.68 5.32 5 6 C2.5625 5.1875 2.5625 5.1875 0 4 C-0.33 3.01 -0.66 2.02 -1 1 C-0.67 0.67 -0.34 0.34 0 0 Z " fill="#0F0F10" transform="translate(1055,587)"/>
<path d="M0 0 C3.29714793 0.32971479 4.6226839 0.6226839 7 3 C3.23375329 4.25541557 1.62811066 3.37061958 -2 2 C-1.34 1.34 -0.68 0.68 0 0 Z " fill="#191919" transform="translate(223,675)"/>
<path d="M0 0 C0.99 0.33 1.98 0.66 3 1 C4.1875 3.5625 4.1875 3.5625 5 6 C4.34 6.66 3.68 7.32 3 8 C0 2.25 0 2.25 0 0 Z " fill="#191819" transform="translate(1102,656)"/>
<path d="M0 0 C0.99 0 1.98 0 3 0 C3.125 2.875 3.125 2.875 3 6 C2.34 6.66 1.68 7.32 1 8 C0 7 0 7 -0.0625 3.4375 C-0.041875 2.303125 -0.02125 1.16875 0 0 Z " fill="#1B1A1B" transform="translate(1065,643)"/>
<path d="M0 0 C1.99097846 2.98646769 2.94124926 5.59687262 4 9 C3.01 9 2.02 9 1 9 C0.29925156 5.846632 0 3.27275026 0 0 Z " fill="#252525" transform="translate(399,640)"/>
<path d="M0 0 C1.09570312 0.10183594 2.19140625 0.20367188 3.3203125 0.30859375 C4.16335938 0.39238281 5.00640625 0.47617187 5.875 0.5625 C5.875 0.8925 5.875 1.2225 5.875 1.5625 C3.91810341 1.78392255 1.95938048 1.9892568 0 2.1875 C-1.63582031 2.36152344 -1.63582031 2.36152344 -3.3046875 2.5390625 C-4.70074219 2.55066406 -4.70074219 2.55066406 -6.125 2.5625 C-6.785 1.9025 -7.445 1.2425 -8.125 0.5625 C-5.28943413 -0.85528293 -3.1341294 -0.30007622 0 0 Z " fill="#313131" transform="translate(727.125,600.4375)"/>
<path d="M0 0 C1.98 0 3.96 0 6 0 C6.33 0.99 6.66 1.98 7 3 C4.69 3 2.38 3 0 3 C0 2.01 0 1.02 0 0 Z " fill="#333233" transform="translate(626,601)"/>
<path d="M0 0 C0.33 0 0.66 0 1 0 C1.1875 3.375 1.1875 3.375 1 7 C0.01 7.66 -0.98 8.32 -2 9 C-2.33 7.68 -2.66 6.36 -3 5 C-2.34 4.67 -1.68 4.34 -1 4 C-0.34786708 1.97536745 -0.34786708 1.97536745 0 0 Z " fill="#161516" transform="translate(572,596)"/>
<path d="M0 0 C2.475 0.99 2.475 0.99 5 2 C5 4.31 5 6.62 5 9 C2.67527795 6.14693203 1.2491742 3.45925163 0 0 Z " fill="#212021" transform="translate(763,591)"/>
<path d="M0 0 C2.3125 0.1875 2.3125 0.1875 4 1 C1.02819057 2.89865603 -1.51460083 4.35455571 -5 5 C-2.75 2.4375 -2.75 2.4375 0 0 Z " fill="#181818" transform="translate(212,552)"/>
<path d="M0 0 C0.598125 0.45375 1.19625 0.9075 1.8125 1.375 C3.50590652 2.63295913 5.24477086 3.82984724 7 5 C5.35 5.33 3.7 5.66 2 6 C1.01 4.68 0.02 3.36 -1 2 C-0.67 1.34 -0.34 0.68 0 0 Z " fill="#0F0F0F" transform="translate(313,675)"/>
<path d="M0 0 C2.31 0.66 4.62 1.32 7 2 C6.01 2.66 5.02 3.32 4 4 C0.8125 3.125 0.8125 3.125 -2 2 C-1.34 1.34 -0.68 0.68 0 0 Z " fill="#1C1B1C" transform="translate(606,675)"/>
<path d="M0 0 C0.66 0.33 1.32 0.66 2 1 C1.3125 2.9375 1.3125 2.9375 0 5 C-2.625 5.75 -2.625 5.75 -5 6 C-3.35 4.02 -1.7 2.04 0 0 Z " fill="#1E1E1F" transform="translate(1084,655)"/>
<path d="M0 0 C2 1.3125 2 1.3125 4 3 C4 3.99 4 4.98 4 6 C2.0625 5.6875 2.0625 5.6875 0 5 C-0.33 4.01 -0.66 3.02 -1 2 C-0.67 1.34 -0.34 0.68 0 0 Z " fill="#1A1A1A" transform="translate(821,597)"/>
<path d="M0 0 C0.66 0.33 1.32 0.66 2 1 C0.35 2.98 -1.3 4.96 -3 7 C-3.99 6.67 -4.98 6.34 -6 6 C-4.02 4.02 -2.04 2.04 0 0 Z " fill="#121112" transform="translate(904,589)"/>
<path d="M0 0 C2.91517292 1.07401108 4.77810176 1.77810176 7 4 C4 5 4 5 1.8125 4.0625 C1.214375 3.711875 0.61625 3.36125 0 3 C0 2.01 0 1.02 0 0 Z " fill="#111011" transform="translate(555,584)"/>
<path d="M0 0 C0 0.33 0 0.66 0 1 C-1.65 1.33 -3.3 1.66 -5 2 C-5 2.33 -5 2.66 -5 3 C-6.65 3 -8.3 3 -10 3 C-10 2.34 -10 1.68 -10 1 C-6.78548731 -0.60725635 -3.56387464 -0.05748185 0 0 Z " fill="#2C2B2C" transform="translate(436,580)"/>
</svg>
